<mxfile host="app.diagrams.net" modified="2023-05-17T15:56:34.232Z" agent="Mozilla/5.0 (Windows NT 10.0; Win64; x64) AppleWebKit/537.36 (KHTML, like Gecko) Chrome/113.0.0.0 Safari/537.36" version="21.3.2" etag="tb9-eJUByga7WferN2bd" type="github">
  <diagram name="Страница 1" id="TB9k6SzynQCll1sx0PVI">
    <mxGraphModel>
      <root>
        <mxCell id="0" />
        <mxCell id="1" parent="0" />
      </root>
    </mxGraphModel>
  </diagram>
</mxfile>
